# xmcd CD database file generated by Grip 2.96
# 
# Track frame offsets:
#       150
#       10650
#       26175
#       44925
#       65550
#       82500
#       97725
#       110175
#       136200
#       152400
#       170625
#       184650
#       205500
#       224100
#       237600
#       252450
#       270225
#       282975
#       300300
#       322875
# 
# Disc length: 4496 seconds
# 
# Revision: 1
# Processed by: cddbd v1.4PL0 Copyright (c) Steve Scherf et al.
# Submitted via: Grip 2.96
# 
DISCID=16118e14
DTITLE=Alexis Korner - Bootleg him!
DYEAR=1991
DGENRE=blues
TTITLE0=She fooled me
TTITLE1=I'm a hoochie coochie man
TTITLE2=Yellow dog blues
TTITLE3=I wonder who
TTITLE4=Dee
TTITLE5=Oh lord, don' let them drop that atomic bomb on me
TTITLE6=Rockin'
TTITLE7=Honesty
TTITLE8=I got a woman
TTITLE9=Mighty-mighty spade and whitey
TTITLE10=Corinna Corinna
TTITLE11=Operator
TTITLE12=The love you save
TTITLE13=Jesus is just alright
TTITLE14=That's all
TTITLE15=Evil hearted woman
TTITLE16=Clay house inn
TTITLE17=Love is gonna go
TTITLE18=Sunrise
TTITLE19=Hellhound on my trail
EXTD=
EXTT0=
EXTT1=
EXTT2=
EXTT3=
EXTT4=
EXTT5=
EXTT6=
EXTT7=
EXTT8=
EXTT9=
EXTT10=
EXTT11=
EXTT12=
EXTT13=
EXTT14=
EXTT15=
EXTT16=
EXTT17=
EXTT18=
EXTT19=
PLAYORDER=
